<svg xmlns="http://www.w3.org/2000/svg" version="1.1" xmlns:xlink="http://www.w3.org/1999/xlink" xmlns:svgjs="http://svgjs.dev/svgjs" 
width="308.7612359841165"
height="304.915625" 
viewBox="0 0 1000 1000"><g transform="matrix(1,0,0,1,-0.14221556886212738,-0.14221556886229791)"><svg viewBox="0 0 334 334" data-background-color="#ffffff" preserveAspectRatio="xMidYMid meet" height="1000" width="1000" xmlns="http://www.w3.org/2000/svg" xmlns:xlink="http://www.w3.org/1999/xlink"><g id="tight-bounds" transform="matrix(1,0,0,1,0.04749999999998522,0.04750000000001364)"><svg viewBox="0 0 333.90454557049503 333.90454557049503" height="333.90454557049503" width="333.90454557049503"><g><svg></svg></g><g><svg viewBox="0 0 333.90454557049503 333.90454557049503" height="333.90454557049503" width="333.90454557049503"><g><path d="M0 166.952c0-92.205 74.747-166.952 166.952-166.952 92.205 0 166.952 74.747 166.953 166.952 0 92.205-74.747 166.952-166.953 166.953-92.205 0-166.952-74.747-166.952-166.953zM166.952 316.63c82.665 0 149.677-67.013 149.678-149.678 0-82.665-67.013-149.677-149.678-149.677-82.665 0-149.677 67.013-149.677 149.677 0 82.665 67.013 149.677 149.677 149.678z" data-fill-palette-color="tertiary" fill="#ff0000" stroke="transparent"></path><ellipse rx="160.27418187383762" ry="160.27418187383762" cx="166.95227278524752" cy="166.95227278524752" fill="#ff0000" stroke="transparent" stroke-width="0" fill-opacity="1" data-fill-palette-color="tertiary"></ellipse></g><g transform="matrix(1,0,0,1,100.58814796886237,71.17305217166896)"><svg viewBox="0 0 132.7282496327703 191.55844122715712" height="191.55844122715712" width="132.7282496327703"><g><svg viewBox="0 0 132.7282496327703 191.55844122715712" height="191.55844122715712" width="132.7282496327703"><g><svg viewBox="0 0 132.7282496327703 191.55844122715712" height="191.55844122715712" width="132.7282496327703"><g><svg viewBox="0 0 132.7282496327703 191.55844122715712" height="191.55844122715712" width="132.7282496327703"><g><svg viewBox="0 0 132.7282496327703 191.55844122715712" height="191.55844122715712" width="132.7282496327703"><g><svg viewBox="0 0 132.7282496327703 191.55844122715712" height="191.55844122715712" width="132.7282496327703"><g transform="matrix(1,0,0,1,0,0)"><svg width="132.7282496327703" viewBox="4.91 -35.69 24.73 35.69" height="191.55844122715712" data-palette-color="#ffffff"><path d="M4.91 0L4.91-35.69 14.99-35.69Q22.09-35.69 25.27-33.57 28.44-31.45 28.44-26.86L28.44-26.86Q28.44-23.68 26.67-21.62 24.9-19.56 21.51-18.95L21.51-18.95 21.51-18.7Q29.64-17.31 29.64-10.16L29.64-10.16Q29.64-5.37 26.4-2.69 23.17 0 17.36 0L17.36 0 4.91 0ZM9.06-32.1L9.06-20.41 15.89-20.41Q20.29-20.41 22.22-21.79 24.15-23.17 24.15-26.44L24.15-26.44Q24.15-29.44 22-30.77 19.85-32.1 15.16-32.1L15.16-32.1 9.06-32.1ZM16.16-16.89L9.06-16.89 9.06-3.54 16.5-3.54Q20.83-3.54 23.01-5.21 25.2-6.88 25.2-10.45L25.2-10.45Q25.2-13.77 22.96-15.33 20.73-16.89 16.16-16.89L16.16-16.89Z" opacity="1" transform="matrix(1,0,0,1,0,0)" fill="#ffffff" class="undefined-text-0" data-fill-palette-color="quaternary" id="text-0"></path></svg></g></svg></g></svg></g></svg></g><g></g></svg></g></svg></g></svg></g></svg></g><defs></defs></svg><rect width="333.90454557049503" height="333.90454557049503" fill="none" stroke="none" visibility="hidden"></rect></g></svg></g></svg>